<mxfile host="app.diagrams.net" modified="2020-10-19T16:10:38.552Z" agent="5.0 (Windows NT 10.0; Win64; x64) AppleWebKit/537.36 (KHTML, like Gecko) Chrome/81.0.4044.138 Safari/537.36" etag="J3MQ4n3bXMPuK1YpQWQ1" version="13.8.0" type="github">
  <diagram id="S03zyzZ-7_rwYJkS3374" name="Page-1">
    <mxGraphModel dx="1422" dy="762" grid="1" gridSize="10" guides="1" tooltips="1" connect="1" arrows="1" fold="1" page="1" pageScale="1" pageWidth="827" pageHeight="1169" math="0" shadow="0">
      <root>
        <mxCell id="0" />
        <mxCell id="1" parent="0" />
        <mxCell id="JMoVQSdtzJ7WO73EhbvL-1" value="&lt;p style=&quot;margin: 0px ; padding: 0px ; clear: both ; color: rgb(62 , 62 , 62) ; font-size: 16px ; letter-spacing: 2px ; word-spacing: 2px&quot;&gt;&lt;strong style=&quot;margin: 0px ; padding: 0px&quot;&gt;&lt;span style=&quot;margin: 0px ; padding: 0px ; color: rgb(255 , 0 , 0) ; font-size: 24px ; background: rgb(255 , 255 , 0)&quot;&gt;&lt;span style=&quot;margin: 0px ; padding: 0px&quot;&gt;是的！没错！&lt;/span&gt;&amp;nbsp;&lt;/span&gt;&lt;/strong&gt;&lt;/p&gt;&lt;p style=&quot;margin: 0px ; padding: 0px ; clear: both ; color: rgb(62 , 62 , 62) ; font-size: 16px ; letter-spacing: 2px ; word-spacing: 2px&quot;&gt;&lt;strong style=&quot;margin: 0px ; padding: 0px&quot;&gt;&lt;span style=&quot;margin: 0px ; padding: 0px ; color: rgb(255 , 0 , 0) ; font-size: 24px ; background: rgb(255 , 255 , 0)&quot;&gt;100&amp;nbsp;&lt;span style=&quot;margin: 0px ; padding: 0px&quot;&gt;减&amp;nbsp;&lt;/span&gt;&lt;span style=&quot;margin: 0px ; padding: 0px&quot;&gt;50&amp;nbsp;&lt;/span&gt;&lt;span style=&quot;margin: 0px ; padding: 0px&quot;&gt;之后满&amp;nbsp;&lt;/span&gt;&lt;/span&gt;&lt;/strong&gt;&lt;strong style=&quot;margin: 0px ; padding: 0px&quot;&gt;&lt;span style=&quot;margin: 0px ; padding: 0px ; color: rgb(255 , 0 , 0) ; font-size: 24px ; background: rgb(255 , 255 , 0)&quot;&gt;200&amp;nbsp;&lt;/span&gt;&lt;/strong&gt;&lt;strong style=&quot;margin: 0px ; padding: 0px&quot;&gt;&lt;span style=&quot;margin: 0px ; padding: 0px ; color: rgb(255 , 0 , 0) ; font-size: 24px ; background: rgb(255 , 255 , 0)&quot;&gt;&lt;span style=&quot;margin: 0px ; padding: 0px&quot;&gt;还能再减&amp;nbsp;&lt;/span&gt;4&lt;/span&gt;&lt;/strong&gt;&lt;strong style=&quot;margin: 0px ; padding: 0px&quot;&gt;&lt;span style=&quot;margin: 0px ; padding: 0px ; color: rgb(255 , 0 , 0) ; font-size: 24px ; background: rgb(255 , 255 , 0)&quot;&gt;0&lt;/span&gt;&lt;/strong&gt;&lt;strong style=&quot;margin: 0px ; padding: 0px&quot;&gt;&lt;span style=&quot;margin: 0px ; padding: 0px ; color: rgb(255 , 0 , 0) ; font-size: 24px ; background: rgb(255 , 255 , 0)&quot;&gt;&amp;nbsp;&lt;span style=&quot;margin: 0px ; padding: 0px&quot;&gt;！！&lt;/span&gt;&lt;/span&gt;&lt;/strong&gt;&lt;/p&gt;&lt;p style=&quot;margin: 0px ; padding: 0px ; clear: both ; color: rgb(62 , 62 , 62) ; font-size: 16px ; letter-spacing: 2px ; word-spacing: 2px&quot;&gt;&lt;strong style=&quot;margin: 0px ; padding: 0px&quot;&gt;&lt;span style=&quot;margin: 0px ; padding: 0px ; color: rgb(255 , 0 , 0) ; font-size: 24px ; background: rgb(255 , 255 , 0)&quot;&gt;&lt;span style=&quot;margin: 0px ; padding: 0px&quot;&gt;相当于满&amp;nbsp;&lt;/span&gt;160&amp;nbsp;&lt;span style=&quot;margin: 0px ; padding: 0px&quot;&gt;元买&amp;nbsp;&lt;/span&gt;&lt;span style=&quot;margin: 0px ; padding: 0px&quot;&gt;400&amp;nbsp;&lt;/span&gt;&lt;span style=&quot;margin: 0px ; padding: 0px&quot;&gt;元的硬核技术书！&lt;/span&gt;&lt;/span&gt;&lt;/strong&gt;&lt;/p&gt;" style="rounded=1;whiteSpace=wrap;html=1;fillColor=#cce5ff;fontFamily=Comic Sans MS;strokeColor=none;" vertex="1" parent="1">
          <mxGeometry x="30" y="240" width="580" height="140" as="geometry" />
        </mxCell>
      </root>
    </mxGraphModel>
  </diagram>
</mxfile>
